<?xml version="1.0" encoding="utf-8"?>
<svg viewBox="137.635 -47.491 249.67 497.893" style="shape-rendering:geometricPrecision; text-rendering:geometricPrecision; image-rendering:optimizeQuality; fill-rule:evenodd; clip-rule:evenodd" xmlns="http://www.w3.org/2000/svg">
  <g style="" transform="matrix(1, 0, 0, 1.4574350118637085, 0, -215.22332763671875)">
    <path style="opacity:0.992" fill="#d4f7f9" d="M 282.5,146.5 C 279.366,153.433 275.699,160.1 271.5,166.5C 267.356,163.524 263.356,160.357 259.5,157C 258.668,156.312 258.002,156.479 257.5,157.5C 254.432,166.538 251.265,175.538 248,184.5C 245.448,162.872 243.281,141.205 241.5,119.5C 245.004,111.161 249.171,103.161 254,95.5C 263.728,112.389 273.228,129.389 282.5,146.5 Z"/>
  </g>
  <g style="" transform="matrix(1, 0, 0, 1.4574350118637085, 0, -215.22332763671875)">
    <path style="opacity:1" fill="#7ce8e5" d="M 241.5,119.5 C 243.281,141.205 245.448,162.872 248,184.5C 251.265,175.538 254.432,166.538 257.5,157.5C 258.002,156.479 258.668,156.312 259.5,157C 263.356,160.357 267.356,163.524 271.5,166.5C 275.699,160.1 279.366,153.433 282.5,146.5C 283.833,145.5 285.167,144.5 286.5,143.5C 287.376,143.369 288.043,143.702 288.5,144.5C 292.983,152.805 297.65,160.972 302.5,169C 297.067,181.028 292.067,193.194 287.5,205.5C 267.833,205.5 248.167,205.5 228.5,205.5C 229.906,196.133 231.573,186.8 233.5,177.5C 233.43,176.228 233.097,175.062 232.5,174C 229.488,173.22 226.655,172.053 224,170.5C 224.109,162.412 224.942,154.412 226.5,146.5C 230.743,137.009 235.743,128.009 241.5,119.5 Z"/>
  </g>
  <g style="" transform="matrix(1, 0, 0, 1.4574350118637085, 0, -215.22332763671875)">
    <path style="opacity:0.995" fill="#d4f7f9" d="M 337.5,180.5 C 344.167,188.833 350.833,197.167 357.5,205.5C 334.167,205.5 310.833,205.5 287.5,205.5C 292.067,193.194 297.067,181.028 302.5,169C 297.65,160.972 292.983,152.805 288.5,144.5C 288.043,143.702 287.376,143.369 286.5,143.5C 289.796,139.702 293.296,136.036 297,132.5C 310.746,148.346 324.246,164.346 337.5,180.5 Z"/>
  </g>
  <g style="" transform="matrix(1, 0, 0, 1.4574350118637085, 0, -215.22332763671875)">
    <path style="opacity:0.998" fill="#5ed3cd" d="M 226.5,146.5 C 224.942,154.412 224.109,162.412 224,170.5C 226.655,172.053 229.488,173.22 232.5,174C 233.097,175.062 233.43,176.228 233.5,177.5C 231.573,186.8 229.906,196.133 228.5,205.5C 217.167,205.5 205.833,205.5 194.5,205.5C 195.44,203.388 196.606,201.388 198,199.5C 198.667,198.5 198.667,197.5 198,196.5C 194.681,195.116 191.515,193.45 188.5,191.5C 191.566,185.293 194.232,178.96 196.5,172.5C 202.344,161.315 208.344,150.149 214.5,139C 215.908,138.685 217.241,139.018 218.5,140C 221.014,142.415 223.681,144.581 226.5,146.5 Z"/>
  </g>
  <g style="" transform="matrix(1, 0, 0, 1.4574350118637085, 0, -215.22332763671875)">
    <path style="opacity:0.981" fill="#5fd3cd" d="M 175.5,159.5 C 174.99,165.135 175.823,170.802 178,176.5C 178.17,182.196 178.67,187.862 179.5,193.5C 183.004,195.418 186.337,197.584 189.5,200C 188.139,201.584 187.472,203.418 187.5,205.5C 176.167,205.5 164.833,205.5 153.5,205.5C 159.279,189.316 166.112,173.649 174,158.5C 174.765,158.57 175.265,158.903 175.5,159.5 Z"/>
  </g>
  <g style="" transform="matrix(1, 0, 0, 1.4574350118637085, 0, -215.22332763671875)">
    <path style="opacity:0.999" fill="#d2f7f8" d="M 175.5,159.5 C 182.36,164.095 189.36,168.428 196.5,172.5C 194.232,178.96 191.566,185.293 188.5,191.5C 191.515,193.45 194.681,195.116 198,196.5C 198.667,197.5 198.667,198.5 198,199.5C 196.606,201.388 195.44,203.388 194.5,205.5C 192.167,205.5 189.833,205.5 187.5,205.5C 187.472,203.418 188.139,201.584 189.5,200C 186.337,197.584 183.004,195.418 179.5,193.5C 178.67,187.862 178.17,182.196 178,176.5C 175.823,170.802 174.99,165.135 175.5,159.5 Z"/>
  </g>
  <g style="" transform="matrix(1, 0, 0, 1.4574350118637085, 0, -215.22332763671875)">
    <path style="opacity:1" fill="#7be7e4" d="M 373.5,205.5 C 368.167,205.5 362.833,205.5 357.5,205.5C 350.833,197.167 344.167,188.833 337.5,180.5C 341,177.169 344.666,174.002 348.5,171C 349.167,170.333 349.833,170.333 350.5,171C 356.363,177.896 361.863,185.063 367,192.5C 369.705,196.577 371.872,200.91 373.5,205.5 Z"/>
  </g>
  <g style="" transform="matrix(1, 0, 0, 1.4574350118637085, 7.047746181488037, -235.29811096191406)">
    <path style="opacity:0.991" fill="#178baf" d="M 165.5,218.5 C 165.5,235.167 165.5,251.833 165.5,268.5C 176.139,278.301 186.972,287.968 198,297.5C 200.1,308.1 201.767,318.767 203,329.5C 214.197,340.363 225.03,351.529 235.5,363C 227.598,378.64 219.598,394.14 211.5,409.5C 206.545,395.041 201.878,380.374 197.5,365.5C 191.822,361.659 185.822,358.326 179.5,355.5C 178.046,339.871 177.212,324.204 177,308.5C 163.925,297.713 150.758,287.047 137.5,276.5C 135.906,262.024 134.573,247.524 133.5,233C 135.11,228.283 137.11,223.783 139.5,219.5C 148.082,218.53 156.749,218.197 165.5,218.5 Z"/>
  </g>
  <g style="" transform="matrix(1, 0, 0, 1.4574350118637085, 7.047746181488037, -235.29811096191406)">
    <path style="opacity:1" fill="#4da5d0" d="M 165.5,218.5 C 198.833,218.5 232.167,218.5 265.5,218.5C 257.532,247.036 249.865,275.703 242.5,304.5C 228.813,288.811 215.48,272.811 202.5,256.5C 190.267,260.911 177.934,264.911 165.5,268.5C 165.5,251.833 165.5,235.167 165.5,218.5 Z"/>
  </g>
  <g style="" transform="matrix(1, 0, 0, 1.4574350118637085, 7.047746181488037, -235.29811096191406)">
    <path style="opacity:1" fill="#178baf" d="M 265.5,218.5 C 277.58,218.188 289.58,218.521 301.5,219.5C 309.041,238.921 316.875,258.254 325,277.5C 325.991,279.447 326.325,281.447 326,283.5C 321.302,290.701 316.802,298.035 312.5,305.5C 297.175,306.405 281.841,306.405 266.5,305.5C 268.754,325.127 270.254,344.794 271,364.5C 266.232,373.036 261.732,381.703 257.5,390.5C 251.957,362.058 246.957,333.392 242.5,304.5C 249.865,275.703 257.532,247.036 265.5,218.5 Z"/>
  </g>
  <g style="" transform="matrix(1, 0, 0, 1.4574350118637085, 7.047746181488037, -235.29811096191406)">
    <path style="opacity:1" fill="#67b5e4" d="M 369.5,219.5 C 370.302,226.146 371.135,232.813 372,239.5C 374.89,244.114 377.39,248.947 379.5,254C 375.057,260.114 370.224,265.947 365,271.5C 361,288.833 357,306.167 353,323.5C 352.439,324.022 351.772,324.355 351,324.5C 344.476,322.621 337.976,321.621 331.5,321.5C 328.583,343.171 325.583,364.838 322.5,386.5C 314.787,384.322 307.12,381.988 299.5,379.5C 287.845,409.297 276.678,439.297 266,469.5C 265.617,470.056 265.117,470.389 264.5,470.5C 255.414,456.66 246.081,442.993 236.5,429.5C 243.738,416.694 250.738,403.694 257.5,390.5C 261.732,381.703 266.232,373.036 271,364.5C 270.254,344.794 268.754,325.127 266.5,305.5C 281.841,306.405 297.175,306.405 312.5,305.5C 316.802,298.035 321.302,290.701 326,283.5C 326.325,281.447 325.991,279.447 325,277.5C 316.875,258.254 309.041,238.921 301.5,219.5C 324.167,218.167 346.833,218.167 369.5,219.5 Z"/>
  </g>
  <g style="" transform="matrix(1, 0, 0, 1.4574350118637085, 7.047746181488037, -235.29811096191406)">
    <path style="opacity:1" fill="#3b95ba" d="M 242.5,304.5 C 246.957,333.392 251.957,362.058 257.5,390.5C 250.738,403.694 243.738,416.694 236.5,429.5C 228.167,423.5 219.833,417.5 211.5,411.5C 210.494,411.062 210.494,410.396 211.5,409.5C 219.598,394.14 227.598,378.64 235.5,363C 225.03,351.529 214.197,340.363 203,329.5C 201.767,318.767 200.1,308.1 198,297.5C 186.972,287.968 176.139,278.301 165.5,268.5C 177.934,264.911 190.267,260.911 202.5,256.5C 215.48,272.811 228.813,288.811 242.5,304.5 Z"/>
  </g>
  <g style="" transform="matrix(1, 0, 0, 1.4574350118637085, 7.047746181488037, -235.29811096191406)">
    <path style="opacity:0.979" fill="#178baf" d="M 211.5,411.5 C 219.833,417.5 228.167,423.5 236.5,429.5C 246.081,442.993 255.414,456.66 264.5,470.5C 252.375,468.313 240.541,465.313 229,461.5C 221.673,445.353 215.84,428.686 211.5,411.5 Z"/>
  </g>
</svg>